<?xml version="1.0" encoding="utf-8"?>
<!-- Generator: Adobe Illustrator 26.0.1, SVG Export Plug-In . SVG Version: 6.00 Build 0)  -->
<svg version="1.1" id="Layer_1" xmlns="http://www.w3.org/2000/svg" xmlns:xlink="http://www.w3.org/1999/xlink" x="0px" y="0px"
	 viewBox="0 0 534 544" style="enable-background:new 0 0 534 544;" xml:space="preserve">
<style type="text/css">
	.st0{fill:#FFFFFF;}
	.st1{fill:#7E57C2;}
</style>
<path class="st0" d="M267,33c-31.5,0-127.5,0-180.6,48.5c-31.6,31.5-46.5,77-46.5,142.8V260c0,65.8,14.9,111.3,46.9,143.1
	c15.9,14.5,37.6,26.1,64.2,34.1l8.5,2.6v63.7c0,7.5,2.2,7.5,2.9,7.5c1.5,0,3.8-0.5,8.3-4.4c1.1-1.1,9-9.6,47.3-52.6l3.9-4.3l5.8,0.4
	c12.8,0.8,26.1,1.2,39.4,1.2c31.5,0,127.5,0,180.6-48.5c31.6-31.5,46.5-77,46.5-142.8v-35.9c0-65.8-14.9-111.3-46.9-143.1
	C394.5,33,298.5,33,267,33z"/>
<path class="st1" d="M380,318.1c-13.3-11.2-19.4-14.6-37.7-25.6c-7.6-4.6-19.3-8.5-25.4-8.5c-4.2,0-9.2,3.2-12.2,6.3
	c-7.8,7.8-10.4,17.7-24.2,17.7c-13.4,0-36.9-13.7-53.8-31.4c-17.7-16.9-31.4-40.3-31.4-53.8c0-13.7,9.6-16.5,17.5-24.3
	c3.1-3,6.4-8,6.4-12.2c0-6.1-4-17.6-8.5-25.2c-11-18.3-14.4-24.5-25.6-37.7c-3.8-4.5-8.1-6.5-12.6-6.6c-7.6,0-17.7,3.8-24.5,8.8
	c-10.2,7.6-20.9,18-23.7,30.9c-0.4,1.8-0.6,3.5-0.7,5.3c-0.5,13.4,4.7,27.1,10.4,38.7c13.4,27.2,31.2,53.6,50.5,77.2
	c6.2,7.5,12.9,14.5,19.9,21.3c6.8,7,13.8,13.7,21.3,19.9c23.5,19.3,49.9,37.1,77.2,50.5c11.5,5.6,24.9,10.8,38.2,10.4
	c1.9-0.1,3.8-0.3,5.7-0.7c12.9-2.8,23.3-13.5,30.9-23.7c5.1-6.8,8.8-16.8,8.8-24.5C386.5,326.2,384.5,321.9,380,318.1z M386.5,260
	c-6.6,0-12-5.4-12-12v-12c0-59.3-48.3-107.6-107.6-107.6c-6.6,0-12-5.4-12-12c0-6.6,5.4-12,12-12c72.5,0,131.5,59,131.5,131.5v12
	C398.5,254.7,393.1,260,386.5,260z M313.1,236.1c-5.3,0-10.2-3.6-11.6-8.9c-3.3-12.6-13.1-22.4-25.6-25.6
	c-6.4-1.7-10.2-8.2-8.6-14.6c1.6-6.4,8.2-10.2,14.6-8.6c20.9,5.4,37.3,21.8,42.7,42.7c1.7,6.4-2.2,12.9-8.5,14.6
	C315.1,236,314.1,236.1,313.1,236.1z"/>
<path class="st1" d="M350.7,248.1c-6.6,0-12-5.4-12-12c0-38.1-29.8-69.5-67.9-71.5c-6.6-0.3-11.7-6-11.3-12.6
	c0.3-6.6,6.1-11.7,12.6-11.3c50.8,2.7,90.5,44.6,90.5,95.4C362.6,242.7,357.3,248.1,350.7,248.1z"/>
<path class="st1" d="M267,21c-53.8,0-137.6,4.9-188.7,51.6C42.3,108.5,28,158.9,28,224.2c0,5.4,0,11.4,0,17.9c0,6.5,0,12.5,0,17.9
	c0,65.2,14.3,115.7,50.4,151.6c19.4,17.7,43.7,29.4,69.1,37.1v54.8c0,19.1,12.5,19.4,14.8,19.4h0.1c5.9,0,11-2.9,16.1-7.5
	c1.9-1.7,24.1-26.5,48.3-53.6c14.4,0.9,28.1,1.3,40.1,1.3l0,0l0,0c53.8,0,137.6-5,188.7-51.6C491.7,375.7,506,325.3,506,260
	c0-5.4,0-11.4,0-17.9c0-6.5,0-12.5,0-17.9c0-65.2-14.3-115.7-50.4-151.6C404.6,25.9,320.8,21,267,21z M470.2,255.9v4.2
	c0,58.6-12.5,98.6-39.3,125.6c-46.4,41.7-134.8,41.7-163.9,41.7c-8.9,0-23.3,0-40.2-1.2c-4.7,5.3-55.4,61.9-55.4,61.9v-70.1
	c-25.1-6-50-15.9-68.3-32.4c-26.8-27.1-39.3-67-39.3-125.7v-4.2c0-4.2,0-8.7,0-14c0-4.8,0-9.3,0-13.5v-4.2
	c0-58.6,12.5-98.6,39.3-125.6C149.5,56.8,237.9,56.8,267,56.8c29.1,0,117.5,0,163.9,41.7c26.8,27,39.3,67,39.3,125.6v4.2
	c0,4.2,0,8.7,0,14C470.2,247.2,470.2,251.7,470.2,255.9z"/>
</svg>
