<?xml version="1.0" encoding="utf-8"?>
<!-- Generator: Adobe Illustrator 26.0.1, SVG Export Plug-In . SVG Version: 6.00 Build 0)  -->
<svg version="1.1" xmlns="http://www.w3.org/2000/svg" xmlns:xlink="http://www.w3.org/1999/xlink" x="0px" y="0px"
	 viewBox="0 0 534 544" style="enable-background:new 0 0 534 544;" xml:space="preserve">
<style type="text/css">
	.st0{fill:url(#SVGID_1_);}
	.st1{fill:#C8DAEA;}
	.st2{fill:#A9C6D8;}
	.st3{fill:#FFFFFF;}
</style>
<g id="Layer_1">
</g>
<g id="Слой_2">
	
		<linearGradient id="SVGID_1_" gradientUnits="userSpaceOnUse" x1="265.3557" y1="29.9306" x2="265.3557" y2="508.972" gradientTransform="matrix(1 0 0 -1 0 546)">
		<stop  offset="0" style="stop-color:#1D93D2"/>
		<stop  offset="1" style="stop-color:#38B0E3"/>
	</linearGradient>
	<circle class="st0" cx="265.4" cy="276.5" r="239.5"/>
	<path class="st1" d="M188,294.1l28.4,78.7c0,0,3.6,7.4,7.4,7.4s60.4-58.9,60.4-58.9l62.9-121.5L189,273.8L188,294.1z"/>
	<path class="st2" d="M225.6,314.2l-5.5,58c0,0-2.3,17.8,15.5,0s34.8-31.5,34.8-31.5"/>
	<path class="st3" d="M188.5,296.9l-58.5-19c0,0-7-2.8-4.7-9.3c0.5-1.3,1.4-2.5,4.2-4.4c13-9,239.7-90.5,239.7-90.5
		s6.4-2.2,10.2-0.7c1.9,0.6,3.3,2.2,3.8,4.1c0.4,1.7,0.6,3.4,0.5,5.2c0,1.5-0.2,2.9-0.3,5.1c-1.4,22.3-42.7,188.6-42.7,188.6
		s-2.5,9.7-11.3,10.1c-4.4,0.1-8.7-1.5-11.8-4.6c-17.4-15-77.5-55.3-90.8-64.2c-0.6-0.4-1-1.1-1.1-1.8c-0.2-0.9,0.8-2.1,0.8-2.1
		s104.6-93,107.4-102.8c0.2-0.8-0.6-1.1-1.7-0.8c-7,2.6-127.4,78.6-140.7,87C190.5,297,189.5,297,188.5,296.9z"/>
</g>
</svg>
